<?xml version="1.0" encoding="UTF-8" standalone="no"?>
<!-- Created with Inkscape (http://www.inkscape.org/) -->

<svg
   version="1.1"
   id="svg1017"
   xml:space="preserve"
   width="800"
   height="800"
   viewBox="0 0 800 800"
   sodipodi:docname="crow-silhouette-publicdomainvectors.org.svg"
   inkscape:version="1.1.2 (b8e25be833, 2022-02-05)"
   xmlns:inkscape="http://www.inkscape.org/namespaces/inkscape"
   xmlns:sodipodi="http://sodipodi.sourceforge.net/DTD/sodipodi-0.dtd"
   xmlns="http://www.w3.org/2000/svg"
   xmlns:svg="http://www.w3.org/2000/svg"><defs
     id="defs1021"><clipPath
       clipPathUnits="userSpaceOnUse"
       id="clipPath1031"><path
         d="M 0,600 H 600 V 0 H 0 Z"
         id="path1029" /></clipPath></defs><sodipodi:namedview
     id="namedview1019"
     pagecolor="#ffffff"
     bordercolor="#666666"
     borderopacity="1.0"
     inkscape:pageshadow="2"
     inkscape:pageopacity="0.0"
     inkscape:pagecheckerboard="0"
     showgrid="false"
     inkscape:zoom="1.03875"
     inkscape:cx="400"
     inkscape:cy="400"
     inkscape:window-width="1920"
     inkscape:window-height="1018"
     inkscape:window-x="-8"
     inkscape:window-y="-8"
     inkscape:window-maximized="1"
     inkscape:current-layer="g1023" /><g
     id="g1023"
     inkscape:groupmode="layer"
     inkscape:label="crow-silhouette-publicdomainvectors.org"
     transform="matrix(1.3333333,0,0,-1.3333333,0,800)"><g
       id="g1025"><g
         id="g1027"
         clip-path="url(#clipPath1031)"><path
           d="m 501.099,437.033 c -0.888,0.692 -1.832,1.403 -2.828,2.132 l -0.683,-0.993 z"
           style="fill:#fb6507;fill-opacity:1;fill-rule:nonzero;stroke:none"
           id="path1033" /><path
           d="m 498.271,439.165 c -0.256,0.187 -0.516,0.376 -0.779,0.565 l 0.096,-1.558 z"
           style="fill:#f55a00;fill-opacity:1;fill-rule:nonzero;stroke:none"
           id="path1035" /><path
           d="m 532.483,290.07 c -0.235,15.393 -0.39,15.694 -10.708,21.547 -4.478,2.54 -16.17,7.317 -28.594,11.783 l 17.84,-76.863 c 14.381,8.305 21.774,23.137 21.462,43.533"
           style="fill:#ffe157;fill-opacity:1;fill-rule:nonzero;stroke:none"
           id="path1037" /><path
           d="m 511.96,393.594 c 7.384,-0.075 2.514,10.411 -9.162,19.73 -2.829,2.257 -5.232,4.172 -7.232,5.797 l -1.795,-16.92 c 8.899,-4.901 16.64,-8.591 18.189,-8.607"
           style="fill:#ff9b13;fill-opacity:1;fill-rule:nonzero;stroke:none"
           id="path1039" /><path
           d="m 496.36,426.6 c 0.388,-0.055 0.787,-0.111 1.202,-0.171 7.643,-1.088 12.432,-0.778 12.432,0.813 0,1.922 -3.338,5.46 -8.895,9.791 l -3.511,1.139 z"
           style="fill:#ff9b13;fill-opacity:1;fill-rule:nonzero;stroke:none"
           id="path1041" /><path
           d="m 470.494,244.076 c 14.605,-4.715 18.898,-5.105 28.035,-2.648 4.624,1.254 8.785,2.968 12.492,5.109 l -17.84,76.863 c -3.547,1.274 -7.154,2.524 -10.67,3.689 -1.83,0.607 -3.718,1.241 -5.644,1.895 l -42.346,-67.093 c 15.243,-9.934 23.947,-13.952 35.973,-17.815"
           style="fill:#ffdd4d;fill-opacity:1;fill-rule:nonzero;stroke:none"
           id="path1043" /><path
           d="m 288.69,551.752 c -4.314,1.036 -8.47,2.063 -12.201,3.02 -18.707,4.8 -33.693,6.916 -48.865,6.902 -21.1,-0.019 -27.982,-1.472 -28.361,-10.045 l 25.572,-8.926 z"
           style="fill:#df2c00;fill-opacity:1;fill-rule:nonzero;stroke:none"
           id="path1045" /><path
           d="m 425.718,429.453 c 2.823,2.031 6.906,2.522 12.155,1.475 l 59.715,7.244 -0.096,1.558 c -6.861,4.945 -16.012,10.612 -26.086,15.994 -21.987,11.746 -35.077,20.794 -25.784,17.809 2.774,-0.887 12.098,-2.342 20.709,-3.244 11.751,-1.229 15.207,-0.863 13.767,1.454 -2.413,3.897 -18.061,11.842 -40.066,20.785 L 383.316,424.31 Z"
           style="fill:#fb6800;fill-opacity:1;fill-rule:nonzero;stroke:none"
           id="path1047" /><path
           d="m 342.459,291.506 c 0.878,0.912 1.752,1.861 2.61,2.834 l 11.782,13.329 13.505,-5.154 c 7.463,-2.84 23.353,-12.158 35.344,-20.695 12.037,-8.582 21.238,-14.986 28.821,-19.929 l 42.346,67.093 c -7.567,2.571 -15.794,5.477 -24.069,8.486 L 331.613,306.666 Z"
           style="fill:#feba1a;fill-opacity:1;fill-rule:nonzero;stroke:none"
           id="path1049" /><path
           d="m 440.032,492.528 c -11.872,4.825 -25.593,9.939 -40.09,14.864 -11.123,3.777 -20.105,6.879 -27.124,9.402 l 10.498,-92.484 z"
           style="fill:#f35c00;fill-opacity:1;fill-rule:nonzero;stroke:none"
           id="path1051" /><path
           d="m 371.131,531.663 0.746,-6.576 c 12.269,-0.605 10.152,2.414 -0.746,6.576"
           style="fill:#f35c00;fill-opacity:1;fill-rule:nonzero;stroke:none"
           id="path1053" /><path
           d="m 418.707,397.925 c 0.443,2.269 0.732,4.584 0.84,6.908 0.342,7.478 1.439,16.125 2.437,19.204 0.76,2.38 2.016,4.181 3.734,5.416 l -42.402,-5.143 z"
           style="fill:#ff8500;fill-opacity:1;fill-rule:nonzero;stroke:none"
           id="path1055" /><path
           d="m 437.873,430.928 c 5.753,-1.148 12.9,-4.139 21.312,-8.967 5.886,-3.38 19.449,-11.139 30.101,-17.244 1.512,-0.864 3.014,-1.706 4.485,-2.516 l 1.795,16.92 c -10.976,8.914 -9.737,8.975 0.794,7.479 l 1.228,11.572 z"
           style="fill:#ff8500;fill-opacity:1;fill-rule:nonzero;stroke:none"
           id="path1057" /><path
           d="m 331.613,306.666 121.185,30.804 c -29.299,10.654 -59.201,22.573 -62.546,25.269 -4.684,3.772 -1.488,7.252 6.677,7.312 9.249,0.078 18.867,12.974 21.778,27.874 l -35.391,26.385 z"
           style="fill:#fe9400;fill-opacity:1;fill-rule:nonzero;stroke:none"
           id="path1059" /><path
           d="m 383.316,424.31 -10.498,92.484 c -25.307,9.094 -25.033,10.617 -7.121,8.784 2.366,-0.243 4.421,-0.404 6.18,-0.491 l -0.746,6.576 c -9.818,3.749 -26.761,8.425 -46.739,12.216 -8.624,1.633 -22.864,4.791 -35.702,7.873 l -63.855,-9.049 z"
           style="fill:#f04f00;fill-opacity:1;fill-rule:nonzero;stroke:none"
           id="path1061" /><path
           d="M 383.316,424.31 224.835,542.703 226.334,424.684 Z"
           style="fill:#f64e00;fill-opacity:1;fill-rule:nonzero;stroke:none"
           id="path1063" /><path
           d="m 279.077,189.859 c 0.728,6.993 1.629,13.772 2.648,20.051 l -17.176,0.094 z"
           style="fill:#fbb94f;fill-opacity:1;fill-rule:nonzero;stroke:none"
           id="path1065" /><path
           d="m 281.725,209.91 c 2.77,17.074 6.404,30.459 9.729,34.426 1.752,2.111 3.896,7.191 4.884,11.484 l -31.789,-45.816 z"
           style="fill:#ffab15;fill-opacity:1;fill-rule:nonzero;stroke:none"
           id="path1067" /><path
           d="m 305.022,268.338 c 1.687,1.351 3.654,2.754 5.937,4.246 7.067,4.633 14.977,8.404 17.595,8.404 2.246,0 8.144,4.514 13.905,10.518 l -10.846,15.16 z"
           style="fill:#ffab15;fill-opacity:1;fill-rule:nonzero;stroke:none"
           id="path1069" /><path
           d="m 331.613,306.666 51.703,117.644 -156.982,0.374 z"
           style="fill:#fd7700;fill-opacity:1;fill-rule:nonzero;stroke:none"
           id="path1071" /><path
           d="m 221.234,101.869 c 6.091,-10.408 11.752,-19.273 15.913,-25.049 l 9.445,-0.482 c 0.208,6.67 -2.364,17.346 -7.196,27.889 -3.837,8.404 -6.541,15.681 -6.004,16.23 0.542,0.551 7.678,-7.93 15.868,-18.793 18.719,-24.871 25.499,-23.115 15.889,4.107 l -3.997,11.334 6.48,-6.097 c 7.312,-6.862 14.609,-5.733 14.609,2.252 0,2.879 -2.497,11.886 -5.536,20.002 -4.244,11.334 -4.895,16.097 -2.8,20.392 1.506,3.088 3.392,14.448 4.195,25.237 0.273,3.687 0.601,7.355 0.977,10.968 l -14.528,20.145 z"
           style="fill:#f59959;fill-opacity:1;fill-rule:nonzero;stroke:none"
           id="path1073" /><path
           d="m 218.022,77.801 c -0.593,2.82 -1.447,6.066 -2.558,9.666 l -3.742,-9.344 z"
           style="fill:#f59959;fill-opacity:1;fill-rule:nonzero;stroke:none"
           id="path1075" /><path
           d="m 243.769,69.697 c 1.797,0.629 2.711,3.057 2.823,6.641 l -9.445,0.482 c 3.419,-4.744 5.825,-7.406 6.622,-7.123"
           style="fill:#e0a468;fill-opacity:1;fill-rule:nonzero;stroke:none"
           id="path1077" /><path
           d="m 218.817,73.125 c -0.169,1.391 -0.432,2.953 -0.795,4.676 l -6.3,0.322 z"
           style="fill:#e0a468;fill-opacity:1;fill-rule:nonzero;stroke:none"
           id="path1079" /><path
           d="m 223.336,295.426 41.213,-85.422 31.789,45.816 c 0.031,0.135 0.064,0.27 0.093,0.401 0.906,4.322 3.434,7.986 8.591,12.117 l 26.591,38.328 z"
           style="fill:#ff8800;fill-opacity:1;fill-rule:nonzero;stroke:none"
           id="path1081" /><path
           d="m 223.336,295.426 108.277,11.24 -105.279,118.018 z"
           style="fill:#fd7400;fill-opacity:1;fill-rule:nonzero;stroke:none"
           id="path1083" /><path
           d="m 212.133,69.379 c 5.432,-6.494 7.656,-4.248 6.684,3.746 l -7.095,4.998 z"
           style="fill:#d5815b;fill-opacity:1;fill-rule:nonzero;stroke:none"
           id="path1085" /><path
           d="M 226.334,424.684 148.405,307.791 223.336,295.426 Z"
           style="fill:#fa6200;fill-opacity:1;fill-rule:nonzero;stroke:none"
           id="path1087" /><path
           d="m 224.835,542.703 -61.444,-82.8 62.943,-35.219 z"
           style="fill:#f03600;fill-opacity:1;fill-rule:nonzero;stroke:none"
           id="path1089" /><path
           d="m 264.549,210.004 -41.213,85.422 -86.92,-68.938 z"
           style="fill:#ff7200;fill-opacity:1;fill-rule:nonzero;stroke:none"
           id="path1091" /><path
           d="m 136.416,226.488 75.306,-148.365 3.742,9.344 c -1.662,5.385 -3.902,11.562 -6.723,18.304 -4.479,10.708 -9.769,24.165 -11.771,29.922 -3.321,9.584 -3.28,10.03 0.442,5.237 2.241,-2.879 12.884,-20.313 23.652,-38.77 0.057,-0.097 0.113,-0.193 0.17,-0.291 l 43.315,108.135 z"
           style="fill:#fc741c;fill-opacity:1;fill-rule:nonzero;stroke:none"
           id="path1093" /><path
           d="m 136.416,226.488 -0.126,-56.961 c 12.114,-28.935 28.621,-63.334 34.29,-70.482 3.872,-4.869 4.157,-4.92 4.237,-0.422 0.091,5.523 -8.953,42.227 -14.489,58.777 -2.066,6.149 -3.706,12.038 -3.646,13.09 0.06,1.018 10.366,-18.17 22.905,-42.65 10.878,-21.236 22.243,-42.373 27.393,-51.031 l 4.742,1.314 z"
           style="fill:#f26238;fill-opacity:1;fill-rule:nonzero;stroke:none"
           id="path1095" /><path
           d="m 206.98,76.809 c 0.786,-1.323 1.429,-2.354 1.901,-3.049 1.189,-1.762 2.272,-3.211 3.252,-4.381 l -0.411,8.744 z"
           style="fill:#db6747;fill-opacity:1;fill-rule:nonzero;stroke:none"
           id="path1097" /><path
           d="m 223.336,295.426 -74.931,12.365 -11.989,-81.303 z"
           style="fill:#fa6800;fill-opacity:1;fill-rule:nonzero;stroke:none"
           id="path1099" /><path
           d="m 224.835,542.703 -25.572,8.926 c -0.115,-2.608 0.372,-5.876 1.243,-9.962 5.728,-26.862 -8.862,-51.316 -30.544,-51.191 -3.688,0.024 -11.041,1.564 -18.598,3.774 l 12.027,-34.347 z"
           style="fill:#e42300;fill-opacity:1;fill-rule:nonzero;stroke:none"
           id="path1101" /><path
           d="M 163.391,459.903 148.405,307.791 226.334,424.684 Z"
           style="fill:#f64d00;fill-opacity:1;fill-rule:nonzero;stroke:none"
           id="path1103" /><path
           d="m 102.49,222.1 c 2.049,-6.819 4.506,-13.305 7.509,-20.303 7.297,-17.014 10.903,-15.94 8.927,2.617 -1.575,14.791 -1.42,14.555 8.977,-13.742 2.304,-6.27 5.193,-13.518 8.387,-21.145 l 0.126,56.961 z"
           style="fill:#f2500e;fill-opacity:1;fill-rule:nonzero;stroke:none"
           id="path1105" /><path
           d="m 92.615,293.635 55.79,14.156 -58.128,35.191 c 0.208,-6.926 0.512,-14.472 0.909,-22.723 0.471,-9.802 0.939,-18.624 1.429,-26.624"
           style="fill:#e94c00;fill-opacity:1;fill-rule:nonzero;stroke:none"
           id="path1107" /><path
           d="m 151.364,494.25 c -3.11,0.91 -6.254,1.933 -9.191,3.011 -25.132,9.238 -37.037,12.199 -60.99,12.806 l 82.208,-50.164 z"
           style="fill:#db1300;fill-opacity:1;fill-rule:nonzero;stroke:none"
           id="path1109" /><path
           d="m 81.183,510.067 c -6.359,0.161 -13.565,0.157 -22.096,0.059 -21.219,-0.246 -39.259,-1.124 -40.092,-1.957 -0.828,-0.827 4.348,-3.45 11.51,-5.833 14.033,-4.659 28.703,-16.199 24.962,-19.629 -1.264,-1.164 -8.782,-4.293 -16.696,-6.952 l -14.4,-4.844 13.346,-1.405 c 11.911,-1.254 15.759,-3.455 35.709,-20.392 5.389,-4.576 9.773,-8.287 13.316,-11.362 l 76.649,22.151 z"
           style="fill:#dd1c00;fill-opacity:1;fill-rule:nonzero;stroke:none"
           id="path1111" /><path
           d="M 163.391,459.903 86.742,437.752 c 15.931,-13.823 14.788,-14.725 10.718,-22.873 -6.308,-12.651 -8.381,-31.788 -7.183,-71.897 l 58.128,-35.191 z"
           style="fill:#ed4100;fill-opacity:1;fill-rule:nonzero;stroke:none"
           id="path1113" /><path
           d="m 148.405,307.791 -55.79,-14.156 c 1.054,-17.209 2.209,-30.617 3.722,-41.842 l 40.079,-25.305 z"
           style="fill:#f55e00;fill-opacity:1;fill-rule:nonzero;stroke:none"
           id="path1115" /><path
           d="m 96.337,251.793 c 1.571,-11.652 3.526,-20.951 6.153,-29.693 l 33.926,4.388 z"
           style="fill:#f15700;fill-opacity:1;fill-rule:nonzero;stroke:none"
           id="path1117" /></g></g></g></svg>
