<?xml version="1.0" encoding="UTF-8" standalone="no"?>
<!-- Created with Inkscape (http://www.inkscape.org/) -->

<svg
   xmlns:dc="http://purl.org/dc/elements/1.1/"
   xmlns:cc="http://creativecommons.org/ns#"
   xmlns:rdf="http://www.w3.org/1999/02/22-rdf-syntax-ns#"
   xmlns:svg="http://www.w3.org/2000/svg"
   xmlns="http://www.w3.org/2000/svg"
   xmlns:sodipodi="http://sodipodi.sourceforge.net/DTD/sodipodi-0.dtd"
   xmlns:inkscape="http://www.inkscape.org/namespaces/inkscape"
   width="210mm"
   height="297mm"
   viewBox="0 0 210 297"
   version="1.1"
   id="svg4561"
   inkscape:version="0.91+devel r14326 custom"
   sodipodi:docname="drawing.svg">
  <defs
     id="defs4555">
    <inkscape:path-effect
       effect="bspline"
       id="path-effect5991"
       is_visible="true"
       weight="0.3334"
       steps="2"
       helper_size="0"
       ignore_cusp="true"
       only_selected="false" />
    <inkscape:path-effect
       effect="bspline"
       id="path-effect5987"
       is_visible="true"
       weight="0.3334"
       steps="2"
       helper_size="0"
       ignore_cusp="true"
       only_selected="false" />
    <inkscape:path-effect
       effect="bspline"
       id="path-effect5983"
       is_visible="true"
       weight="0.3334"
       steps="2"
       helper_size="0"
       ignore_cusp="true"
       only_selected="false" />
    <inkscape:path-effect
       effect="bspline"
       id="path-effect5979"
       is_visible="true"
       weight="0.3334"
       steps="2"
       helper_size="0"
       ignore_cusp="true"
       only_selected="false" />
    <inkscape:path-effect
       effect="bspline"
       id="path-effect5975"
       is_visible="true"
       weight="0.3334"
       steps="2"
       helper_size="0"
       ignore_cusp="true"
       only_selected="false" />
    <inkscape:path-effect
       effect="bspline"
       id="path-effect5249"
       is_visible="true"
       weight="0.3334"
       steps="2"
       helper_size="0"
       ignore_cusp="true"
       only_selected="false" />
    <inkscape:path-effect
       effect="bspline"
       id="path-effect5245"
       is_visible="true"
       weight="0.3334"
       steps="2"
       helper_size="0"
       ignore_cusp="true"
       only_selected="false" />
    <inkscape:path-effect
       effect="bspline"
       id="path-effect5241"
       is_visible="true"
       weight="0.3334"
       steps="2"
       helper_size="0"
       ignore_cusp="true"
       only_selected="false" />
    <inkscape:perspective
       sodipodi:type="inkscape:persp3d"
       inkscape:vp_x="0 : 148.5 : 1"
       inkscape:vp_y="0 : 1000 : 0"
       inkscape:vp_z="210 : 148.5 : 1"
       inkscape:persp3d-origin="105 : 99 : 1"
       id="perspective5227" />
    <inkscape:path-effect
       effect="spiro"
       id="path-effect5215"
       is_visible="true" />
    <inkscape:path-effect
       effect="spiro"
       id="path-effect5211"
       is_visible="true" />
    <inkscape:path-effect
       is_visible="true"
       id="path-effect5205"
       effect="spiro" />
    <inkscape:path-effect
       effect="spiro"
       id="path-effect5201"
       is_visible="true" />
    <inkscape:path-effect
       effect="spiro"
       id="path-effect5197"
       is_visible="true" />
    <inkscape:path-effect
       effect="spiro"
       id="path-effect5193"
       is_visible="true" />
    <inkscape:path-effect
       effect="spiro"
       id="path-effect5189"
       is_visible="true" />
    <inkscape:path-effect
       effect="bspline"
       id="path-effect5161"
       is_visible="true"
       weight="0.3334"
       steps="2"
       helper_size="0"
       ignore_cusp="true"
       only_selected="false" />
    <inkscape:path-effect
       effect="bspline"
       id="path-effect5157"
       is_visible="true"
       weight="0.3334"
       steps="2"
       helper_size="0"
       ignore_cusp="true"
       only_selected="false" />
    <inkscape:path-effect
       effect="bspline"
       id="path-effect5153"
       is_visible="true"
       weight="0.3334"
       steps="2"
       helper_size="0"
       ignore_cusp="true"
       only_selected="false" />
    <inkscape:path-effect
       effect="bspline"
       id="path-effect5149"
       is_visible="true"
       weight="0.3334"
       steps="2"
       helper_size="0"
       ignore_cusp="true"
       only_selected="false" />
    <inkscape:path-effect
       effect="bspline"
       id="path-effect5145"
       is_visible="true"
       weight="0.3334"
       steps="2"
       helper_size="0"
       ignore_cusp="true"
       only_selected="false" />
    <inkscape:path-effect
       effect="bspline"
       id="path-effect5141"
       is_visible="true"
       weight="0.3334"
       steps="2"
       helper_size="0"
       ignore_cusp="true"
       only_selected="false" />
    <inkscape:path-effect
       effect="spiro"
       id="path-effect5137"
       is_visible="true" />
  </defs>
  <sodipodi:namedview
     id="base"
     pagecolor="#ffffff"
     bordercolor="#666666"
     borderopacity="1.0"
     inkscape:pageopacity="0.0"
     inkscape:pageshadow="2"
     inkscape:zoom="0.60214562"
     inkscape:cx="754.34428"
     inkscape:cy="532.89184"
     inkscape:document-units="mm"
     inkscape:current-layer="layer1"
     showgrid="false"
     inkscape:window-width="1440"
     inkscape:window-height="856"
     inkscape:window-x="0"
     inkscape:window-y="0"
     inkscape:window-maximized="1" />
  <metadata
     id="metadata4558">
    <rdf:RDF>
      <cc:Work
         rdf:about="">
        <dc:format>image/svg+xml</dc:format>
        <dc:type
           rdf:resource="http://purl.org/dc/dcmitype/StillImage" />
        <dc:title></dc:title>
      </cc:Work>
    </rdf:RDF>
  </metadata>
  <g
     inkscape:label="Layer 1"
     inkscape:groupmode="layer"
     id="layer1">
    <g
       id="g6011"
       transform="matrix(2.0719308,0,0,2.0117608,-119.30716,-139.27441)">
      <path
         inkscape:connector-curvature="0"
         id="path5993"
         d="m 96.730812,195.50026 c -2.167522,-0.12387 -3.9459,-0.23058 -3.951877,-0.23847 -0.006,-0.008 0.854665,-2.29501 1.912543,-5.08259 l 1.923413,-5.06838 2.653375,0.14789 2.653324,0.149 1.36414,5.23384 c 0.75028,2.87863 1.36769,5.25032 1.37198,5.27047 0.0105,0.0411 0.419,0.0625 -7.926867,-0.41229 z"
         style="fill:#ff6600;fill-opacity:1;stroke:#1a1a1a;stroke-width:0.01916412;stroke-miterlimit:4;stroke-dasharray:none;stroke-opacity:1" />
      <path
         style="fill:#ff6600;fill-opacity:1;stroke:#1a1a1a;stroke-width:0.01958286;stroke-miterlimit:4;stroke-dasharray:none;stroke-opacity:1"
         d="m 117.24474,195.802 c -2.14169,0.26627 -3.89981,0.47945 -3.90711,0.47237 -0.008,-0.007 0.4128,-2.52823 0.93354,-5.60271 l 0.94681,-5.58999 2.62106,-0.32978 2.62122,-0.32863 2.29746,5.16299 c 1.2636,2.83964 2.30395,5.17938 2.31186,5.19942 0.0163,0.0409 0.42108,-0.0117 -7.8249,1.01578 z"
         id="path5995"
         inkscape:connector-curvature="0" />
      <ellipse
         ry="39.02026"
         rx="29.827276"
         cy="149.73557"
         cx="107.97687"
         id="path5108"
         style="fill:#1a1a1a;fill-opacity:1;stroke-width:0.247633" />
      <ellipse
         ry="17.781157"
         rx="16.694984"
         cy="105.49364"
         cx="108.89904"
         id="path5112"
         style="fill:#1a1a1a;fill-opacity:1;stroke-width:0.20430058" />
      <ellipse
         ry="33.141422"
         rx="22.717909"
         cy="149.52066"
         cx="108.05706"
         id="path5110"
         style="fill:#f9f9f9;fill-opacity:1;stroke-width:0.46072617" />
      <ellipse
         ry="15.874999"
         rx="12.567709"
         cy="108.57887"
         cx="108.76266"
         id="path5119"
         style="fill:#f9f9f9;fill-opacity:1;stroke-width:0.3564336" />
      <ellipse
         ry="1.7197917"
         rx="1.6536458"
         cy="105.17709"
         cx="103.12135"
         id="path5171"
         style="fill:#1a1a1a;fill-opacity:1;stroke:#1a1a1a;stroke-width:0.26499999;stroke-miterlimit:4;stroke-dasharray:none;stroke-opacity:1" />
      <ellipse
         style="fill:#1a1a1a;fill-opacity:1;stroke:#1a1a1a;stroke-width:0.26499999;stroke-miterlimit:4;stroke-dasharray:none;stroke-opacity:1"
         id="ellipse5175"
         cx="114.23384"
         cy="105.17709"
         rx="1.6536458"
         ry="1.7197917" />
      <path
         d="m 16.565233,-144.28691 a 0.18464804,0.62608922 0 0 1 -0.18387,0.62608 0.18464804,0.62608922 0 0 1 -0.18542,-0.6208 0.18464804,0.62608922 0 0 1 0.182307,-0.63132 0.18464804,0.62608922 0 0 1 0.186957,0.61548 l -0.184622,0.0106 z"
         sodipodi:end="6.2663233"
         sodipodi:start="0"
         sodipodi:ry="0.62608922"
         sodipodi:rx="0.18464804"
         sodipodi:cy="-144.28691"
         sodipodi:cx="16.380585"
         sodipodi:type="arc"
         transform="matrix(-0.52604737,0.85045527,-0.77985581,-0.62595919,0,0)"
         id="path5177"
         style="fill:#f9f9f9;fill-opacity:1;stroke:#f9f9f9;stroke-width:0.30952439;stroke-miterlimit:4;stroke-dasharray:none;stroke-opacity:1" />
      <path
         style="fill:#f9f9f9;fill-opacity:1;stroke:#f9f9f9;stroke-width:0.30952439;stroke-miterlimit:4;stroke-dasharray:none;stroke-opacity:1"
         id="path5179"
         transform="matrix(-0.52604737,0.85045527,-0.77985581,-0.62595919,0,0)"
         sodipodi:type="arc"
         sodipodi:cx="9.4379721"
         sodipodi:cy="-153.65407"
         sodipodi:rx="0.18464804"
         sodipodi:ry="0.62608922"
         sodipodi:start="0"
         sodipodi:end="6.2663233"
         d="m 9.6226201,-153.65407 a 0.18464804,0.62608922 0 0 1 -0.1838696,0.62609 0.18464804,0.62608922 0 0 1 -0.1854199,-0.62081 0.18464804,0.62608922 0 0 1 0.1823064,-0.63132 0.18464804,0.62608922 0 0 1 0.1869569,0.61549 l -0.1846218,0.0106 z" />
      <path
         sodipodi:nodetypes="cccsccccccccccccc"
         inkscape:connector-curvature="0"
         id="path5207"
         d="m 108.92269,100.13894 c -1.22697,-2.526297 -4.05335,-4.021853 -6.67841,-3.533815 -0.97013,0.180364 -2.10836,0.730352 -2.873449,1.388402 -0.06193,0.05336 -0.112545,0.08052 -0.112302,0.06042 1.04e-4,-0.0201 0.200052,-0.304648 0.443994,-0.632311 0.486157,-0.65298 1.425527,-1.688548 1.976487,-2.178853 1.71716,-1.528167 3.62292,-2.646606 5.66672,-2.982313 0.46229,-0.139236 1.66993,-0.23929 2.57844,-0.01873 2.45374,0.307249 4.5272,1.569482 6.55164,3.607927 0.3968,0.399558 1.11451,1.242945 1.08482,1.274823 -0.009,0.01069 -0.10014,-0.02331 -0.20144,-0.07421 -0.31496,-0.158013 -0.81535,-0.335339 -1.26138,-0.446995 -0.39871,-0.09988 -0.485,-0.107773 -1.26875,-0.117643 -0.94989,-0.01198 -1.20584,0.02609 -1.9611,0.292168 -1.54155,0.54293 -2.94521,1.790462 -3.69136,3.28079 l -0.14871,0.29705 z"
         style="fill:#1a1a1a;fill-opacity:1;stroke:#1a1a1a;stroke-width:0.0360762;stroke-miterlimit:4;stroke-dasharray:none;stroke-opacity:1" />
      <path
         inkscape:connector-curvature="0"
         id="path5953"
         d="m 107.4614,111.99136 -1.30825,-3.16649 2.66128,-0.008 c 1.46371,-0.005 2.66561,-0.004 2.67089,0.001 0.005,0.005 -0.58622,1.3932 -1.31447,3.08425 -0.72824,1.69105 -1.34143,3.11546 -1.36264,3.16535 -0.0358,0.0842 -0.13228,-0.13611 -1.34681,-3.07579 z"
         style="fill:#ff6600;fill-opacity:1;stroke:#ff6600;stroke-width:0.033125;stroke-miterlimit:4;stroke-dasharray:none;stroke-opacity:1" />
      <path
         transform="matrix(0.8197039,-0.5727875,0.59094531,0.80671162,0,0)"
         d="m 34.620007,195.13181 a 5.3851342,13.484701 0 0 1 -5.362436,13.48458 5.3851342,13.484701 0 0 1 -5.407641,-13.37091 5.3851342,13.484701 0 0 1 5.31685,-13.5973 5.3851342,13.484701 0 0 1 5.452462,13.25629 l -5.384369,0.22734 z"
         sodipodi:end="6.2663254"
         sodipodi:start="0"
         sodipodi:ry="13.484701"
         sodipodi:rx="5.3851342"
         sodipodi:cy="195.13181"
         sodipodi:cx="29.234873"
         sodipodi:type="arc"
         id="path5965"
         style="fill:#1a1a1a;fill-opacity:1;stroke:#1a1a1a;stroke-width:0.42839187;stroke-miterlimit:4;stroke-dasharray:none;stroke-opacity:1" />
      <path
         style="fill:#1a1a1a;fill-opacity:1;stroke:#1a1a1a;stroke-width:0.47435156;stroke-miterlimit:4;stroke-dasharray:none;stroke-opacity:1"
         id="path5969"
         sodipodi:type="arc"
         sodipodi:cx="-138.95113"
         sodipodi:cy="-74.383743"
         sodipodi:rx="5.9034061"
         sodipodi:ry="15.081807"
         sodipodi:start="0"
         sodipodi:end="6.2663254"
         d="m -133.04772,-74.383743 a 5.9034061,15.081807 0 0 1 -5.87852,15.081673 5.9034061,15.081807 0 0 1 -5.92808,-14.954536 5.9034061,15.081807 0 0 1 5.82855,-15.207739 5.9034061,15.081807 0 0 1 5.97721,14.826336 l -5.90257,0.254266 z"
         transform="matrix(-0.83036695,-0.55721695,0.50337122,-0.86407026,0,0)" />
    </g>
  </g>
</svg>
